# xmcd
#
# Track frame offsets:
#	150
#	15019
#	52063
#	76306
#	90389
#	108942
#	128385
#	164216
#	188028
#
# Disc length: 2893 seconds
#
# Revision: 0
# Processed by: cddbd v1.5.2PL0 Copyright (c) Steve Scherf et al.
# Submitted via: dBpowerAMP V4.0
#
DISCID=600b4b09
DTITLE=Howard and the White Boys - Made in Chicago
DYEAR=2006
DGENRE=Blues
TTITLE0=She Loves My Automobile
TTITLE1=Walk Away
TTITLE2=Good Booty and BBQ
TTITLE3=Walking to My Baby
TTITLE4=I'm in a Phone Booth Baby
TTITLE5=Yonder Wall
TTITLE6=Cold Cold Feeling
TTITLE7=Black Cat Bone
TTITLE8=Coming Home
EXTD=
EXTT0=
EXTT1=
EXTT2=
EXTT3=
EXTT4=
EXTT5=
EXTT6=
EXTT7=
EXTT8=
PLAYORDER=
